<?xml version="1.0" encoding="UTF-8"?>
<svg xmlns="http://www.w3.org/2000/svg" version="1.1" width="250" height="250" viewBox="0 0 250 250"><rect x="0" y="0" width="250" height="250" fill="#ffffff"/><g transform="scale(10)"><g transform="translate(0,0)"><path fill-rule="evenodd" d="M8 0L8 1L9 1L9 2L10 2L10 3L11 3L11 1L13 1L13 0L11 0L11 1L9 1L9 0ZM14 0L14 1L15 1L15 0ZM16 1L16 7L15 7L15 4L14 4L14 3L15 3L15 2L12 2L12 4L11 4L11 5L10 5L10 4L9 4L9 5L10 5L10 8L9 8L9 6L8 6L8 8L9 8L9 9L7 9L7 8L6 8L6 9L7 9L7 10L5 10L5 8L3 8L3 9L4 9L4 10L3 10L3 11L1 11L1 9L2 9L2 8L0 8L0 11L1 11L1 12L0 12L0 17L1 17L1 15L2 15L2 17L3 17L3 16L4 16L4 17L5 17L5 15L7 15L7 16L6 16L6 17L8 17L8 18L9 18L9 17L8 17L8 15L7 15L7 14L5 14L5 15L4 15L4 14L3 14L3 11L4 11L4 12L5 12L5 13L10 13L10 12L11 12L11 13L13 13L13 14L11 14L11 16L10 16L10 18L11 18L11 19L9 19L9 20L8 20L8 22L9 22L9 23L8 23L8 25L9 25L9 24L10 24L10 25L11 25L11 23L10 23L10 22L11 22L11 21L10 21L10 20L11 20L11 19L12 19L12 21L14 21L14 24L13 24L13 25L15 25L15 24L16 24L16 25L17 25L17 24L16 24L16 22L17 22L17 23L18 23L18 22L19 22L19 21L21 21L21 16L22 16L22 18L24 18L24 19L23 19L23 20L24 20L24 21L23 21L23 22L20 22L20 23L19 23L19 24L18 24L18 25L19 25L19 24L21 24L21 25L22 25L22 24L24 24L24 25L25 25L25 20L24 20L24 19L25 19L25 18L24 18L24 16L25 16L25 14L24 14L24 13L25 13L25 10L24 10L24 9L25 9L25 8L24 8L24 9L19 9L19 8L18 8L18 9L17 9L17 1ZM12 4L12 5L11 5L11 7L12 7L12 9L10 9L10 10L7 10L7 11L5 11L5 10L4 10L4 11L5 11L5 12L9 12L9 11L10 11L10 10L12 10L12 11L13 11L13 10L12 10L12 9L13 9L13 7L14 7L14 9L16 9L16 8L15 8L15 7L14 7L14 5L13 5L13 4ZM12 5L12 7L13 7L13 5ZM18 9L18 11L19 11L19 9ZM14 10L14 13L15 13L15 12L17 12L17 15L15 15L15 14L14 14L14 15L12 15L12 16L11 16L11 17L14 17L14 16L15 16L15 18L12 18L12 19L13 19L13 20L14 20L14 19L16 19L16 16L17 16L17 15L18 15L18 14L19 14L19 15L20 15L20 16L21 16L21 15L20 15L20 13L21 13L21 14L23 14L23 13L24 13L24 12L21 12L21 11L20 11L20 13L18 13L18 12L17 12L17 11L15 11L15 10ZM22 10L22 11L24 11L24 10ZM1 13L1 14L2 14L2 15L3 15L3 14L2 14L2 13ZM23 15L23 16L24 16L24 15ZM17 17L17 20L20 20L20 17ZM18 18L18 19L19 19L19 18ZM9 21L9 22L10 22L10 21ZM15 21L15 22L16 22L16 21ZM12 22L12 23L13 23L13 22ZM21 23L21 24L22 24L22 23ZM0 0L0 7L7 7L7 0ZM1 1L1 6L6 6L6 1ZM2 2L2 5L5 5L5 2ZM18 0L18 7L25 7L25 0ZM19 1L19 6L24 6L24 1ZM20 2L20 5L23 5L23 2ZM0 18L0 25L7 25L7 18ZM1 19L1 24L6 24L6 19ZM2 20L2 23L5 23L5 20Z" fill="#000000"/></g></g></svg>
